<svg xmlns="http://www.w3.org/2000/svg" width="24" height="24" viewBox="0 0 24 24" fill="currentColor">
  <path d="M12.186 24h-.007c-3.581-.024-6.334-1.205-8.184-3.509C2.35 18.44 1.5 15.586 1.5 12.01c0-3.585.853-6.442 2.538-8.49C5.852 1.203 8.605.024 12.186 0h.007c2.11.014 3.96.422 5.497 1.213.31.16.457.529.34.858a.724.724 0 0 1-.863.442c-1.344-.349-2.869-.532-4.531-.556h-.007c-2.72.02-4.758.858-6.062 2.49C4.8 6.116 4 8.458 4 11.99c0 3.532.8 5.874 2.121 7.51 1.304 1.632 3.342 2.47 6.062 2.49h.007c2.72-.02 4.758-.858 6.062-2.49.903-1.13 1.528-2.654 1.866-4.547a.724.724 0 0 1 1.43.228c-.393 2.195-1.133 3.972-2.203 5.31C17.532 22.795 14.779 23.976 12.186 24zm5.602-11.688c-.165-2.016-1.047-3.428-2.62-4.204-1.312-.646-2.941-.831-4.416-.501a.724.724 0 0 1-.316-1.414c1.788-.4 3.74-.174 5.342.616 2.033 1.002 3.219 2.855 3.432 5.355a6.91 6.91 0 0 1-.01.917c.912.405 1.546 1.082 1.837 1.996.432 1.358.064 3.055-1.01 4.652a.724.724 0 0 1-1.204-.802c.82-1.218 1.096-2.504.78-3.498-.198-.621-.597-1.064-1.193-1.328a5.042 5.042 0 0 1-1.286 2.317c-1.043 1.084-2.562 1.706-4.158 1.706-1.77 0-3.152-.691-3.996-2.003-.714-1.11-.94-2.528-.62-3.88.55-2.332 2.608-4.014 5.099-4.014.467 0 .925.053 1.365.158a.724.724 0 1 1-.346 1.406 4.067 4.067 0 0 0-.97-.116c-1.918 0-3.471 1.28-3.886 3.04-.238 1.008-.057 2.044.497 2.903.554.861 1.51 1.316 2.857 1.316 1.246 0 2.417-.477 3.198-1.29.73-.76 1.076-1.744 1.004-2.853a.724.724 0 0 1 .623-.77h.001z"/>
</svg>
