<svg xmlns="http://www.w3.org/2000/svg" width="24" height="24" viewBox="0 0 360 320" fill="currentColor">
  <path d="M180 141.964C163.699 110.262 119.308 51.1817 78.0347 22.044C38.4971 -5.86834 23.414 -1.03207 13.526 3.43594C2.08093 8.60755 0 26.1785 0 36.5164C0 46.8542 5.66748 121.272 9.36416 133.694C21.5786 174.738 65.0603 188.607 105.104 181.706C49.7596 190.439 -8.27517 219.456 28.4871 279.096C75.9477 355.358 131.349 277.835 145.777 250.76C150.066 242.906 155.232 228.033 157.799 218.035C160.548 228.054 165.732 243.015 170.025 250.782C184.47 277.928 239.871 355.451 287.346 279.189C324.109 219.549 266.067 190.531 210.708 181.799C250.751 188.7 294.233 174.831 306.462 133.787C310.159 121.365 315.826 46.9469 315.826 36.609C315.826 26.2712 313.746 8.70026 302.3 3.52865C292.412 -0.939365 277.316 -5.77563 237.778 22.1367C196.505 51.2744 152.127 110.355 135.826 142.057L180 141.964Z"/>
</svg>
