<svg xmlns="http://www.w3.org/2000/svg" width="24" height="24" viewBox="0 0 24 24" fill="currentColor">
  <path d="M12.186 24h-.007c-3.581-.024-6.334-1.205-8.184-3.509C2.35 18.44 1.5 15.586 1.5 12.01c0-3.585.853-6.442 2.538-8.49C5.852 1.203 8.605.024 12.186 0h.007c3.581.024 6.334 1.205 8.184 3.509C21.65 5.56 22.5 8.414 22.5 11.99c0 3.585-.853 6.442-2.538 8.49C18.148 22.797 15.395 23.976 12.186 24zM12.183 2c-2.72.02-4.758.858-6.062 2.49C4.8 6.116 4 8.458 4 11.99c0 3.532.8 5.874 2.121 7.51 1.304 1.632 3.342 2.47 6.062 2.49h.007c2.72-.02 4.758-.858 6.062-2.49C19.2 17.874 20 15.532 20 12c0-3.532-.8-5.874-2.121-7.51C16.575 2.858 14.537 2.02 11.817 2h-.007z"/>
  <path d="M17.09 8.294a4.918 4.918 0 0 0-1.305-.219c-1.08 0-2.07.337-2.857.973-.787-.636-1.777-.973-2.857-.973-2.437 0-4.42 1.983-4.42 4.42v.515c0 2.437 1.983 4.42 4.42 4.42.953 0 1.833-.31 2.543-.834l.314.711c.134.304.437.5.773.5.467 0 .847-.38.847-.847 0-.13-.03-.254-.084-.367l-.41-.928c.463-.744.737-1.615.737-2.555v-.515c0-.953-.244-1.847-.684-2.623.41-.244.887-.378 1.393-.378.467 0 .847-.38.847-.847s-.38-.847-.847-.847zm-6.162 7.176c-1.504 0-2.726-1.222-2.726-2.726v-.515c0-1.504 1.222-2.726 2.726-2.726s2.726 1.222 2.726 2.726v.515c0 1.504-1.222 2.726-2.726 2.726z"/>
</svg>
